<?xml version="1.0" encoding="UTF-8" standalone="no"?>
<!DOCTYPE svg PUBLIC "-//W3C//DTD SVG 1.1//EN"
 "http://www.w3.org/Graphics/SVG/1.1/DTD/svg11.dtd">
<!-- Generated by graphviz version 9.0.0 (0)
 -->
<!-- Title: snakemake_dag Pages: 1 -->
<svg width="337pt" height="476pt"
 viewBox="0.00 0.00 337.38 476.00" xmlns="http://www.w3.org/2000/svg" xmlns:xlink="http://www.w3.org/1999/xlink">
<g id="graph0" class="graph" transform="scale(1 1) rotate(0) translate(4 472)">
<title>snakemake_dag</title>
<polygon fill="white" stroke="none" points="-4,4 -4,-472 333.38,-472 333.38,4 -4,4"/>
<!-- 0 -->
<g id="node1" class="node">
<title>0</title>
<path fill="none" stroke="#56d8c1" stroke-width="2" d="M170.38,-36C170.38,-36 131.88,-36 131.88,-36 125.88,-36 119.88,-30 119.88,-24 119.88,-24 119.88,-12 119.88,-12 119.88,-6 125.88,0 131.88,0 131.88,0 170.38,0 170.38,0 176.38,0 182.38,-6 182.38,-12 182.38,-12 182.38,-24 182.38,-24 182.38,-30 176.38,-36 170.38,-36"/>
<text text-anchor="middle" x="151.12" y="-14.88" font-family="sans" font-size="10.00">plot_heads</text>
</g>
<!-- 1 -->
<g id="node2" class="node">
<title>1</title>
<path fill="none" stroke="#56d88a" stroke-width="2" d="M175.25,-108C175.25,-108 127,-108 127,-108 121,-108 115,-102 115,-96 115,-96 115,-84 115,-84 115,-78 121,-72 127,-72 127,-72 175.25,-72 175.25,-72 181.25,-72 187.25,-78 187.25,-84 187.25,-84 187.25,-96 187.25,-96 187.25,-102 181.25,-108 175.25,-108"/>
<text text-anchor="middle" x="151.12" y="-86.88" font-family="sans" font-size="10.00">post_process</text>
</g>
<!-- 1&#45;&gt;0 -->
<g id="edge1" class="edge">
<title>1&#45;&gt;0</title>
<path fill="none" stroke="grey" stroke-width="2" d="M151.12,-71.34C151.12,-64.75 151.12,-57.08 151.12,-49.67"/>
<polygon fill="grey" stroke="grey" stroke-width="2" points="154.63,-49.93 151.13,-39.93 147.63,-49.93 154.63,-49.93"/>
</g>
<!-- 2 -->
<g id="node3" class="node">
<title>2</title>
<path fill="none" stroke="#d8bc56" stroke-width="2" d="M170,-180C170,-180 132.25,-180 132.25,-180 126.25,-180 120.25,-174 120.25,-168 120.25,-168 120.25,-156 120.25,-156 120.25,-150 126.25,-144 132.25,-144 132.25,-144 170,-144 170,-144 176,-144 182,-150 182,-156 182,-156 182,-168 182,-168 182,-174 176,-180 170,-180"/>
<text text-anchor="middle" x="151.12" y="-158.88" font-family="sans" font-size="10.00">run_model</text>
</g>
<!-- 2&#45;&gt;1 -->
<g id="edge2" class="edge">
<title>2&#45;&gt;1</title>
<path fill="none" stroke="grey" stroke-width="2" d="M151.12,-143.34C151.12,-136.75 151.12,-129.08 151.12,-121.67"/>
<polygon fill="grey" stroke="grey" stroke-width="2" points="154.63,-121.93 151.13,-111.93 147.63,-121.93 154.63,-121.93"/>
</g>
<!-- 3 -->
<g id="node4" class="node">
<title>3</title>
<path fill="none" stroke="#568ad8" stroke-width="2" d="M173,-252C173,-252 129.25,-252 129.25,-252 123.25,-252 117.25,-246 117.25,-240 117.25,-240 117.25,-228 117.25,-228 117.25,-222 123.25,-216 129.25,-216 129.25,-216 173,-216 173,-216 179,-216 185,-222 185,-228 185,-228 185,-240 185,-240 185,-246 179,-252 173,-252"/>
<text text-anchor="middle" x="151.12" y="-230.88" font-family="sans" font-size="10.00">build_model</text>
</g>
<!-- 3&#45;&gt;2 -->
<g id="edge3" class="edge">
<title>3&#45;&gt;2</title>
<path fill="none" stroke="grey" stroke-width="2" d="M151.12,-215.34C151.12,-208.75 151.12,-201.08 151.12,-193.67"/>
<polygon fill="grey" stroke="grey" stroke-width="2" points="154.63,-193.93 151.13,-183.93 147.63,-193.93 154.63,-193.93"/>
</g>
<!-- 4 -->
<g id="node5" class="node">
<title>4</title>
<path fill="none" stroke="#88d856" stroke-width="2" d="M115.25,-396C115.25,-396 67,-396 67,-396 61,-396 55,-390 55,-384 55,-384 55,-372 55,-372 55,-366 61,-360 67,-360 67,-360 115.25,-360 115.25,-360 121.25,-360 127.25,-366 127.25,-372 127.25,-372 127.25,-384 127.25,-384 127.25,-390 121.25,-396 115.25,-396"/>
<text text-anchor="middle" x="91.12" y="-374.88" font-family="sans" font-size="10.00">discretization</text>
</g>
<!-- 4&#45;&gt;3 -->
<g id="edge4" class="edge">
<title>4&#45;&gt;3</title>
<path fill="none" stroke="grey" stroke-width="2" d="M89.89,-359.06C89.34,-340.42 90.53,-310.85 101.12,-288 105.54,-278.48 112.34,-269.56 119.53,-261.86"/>
<polygon fill="grey" stroke="grey" stroke-width="2" points="121.88,-264.45 126.52,-254.92 116.96,-259.48 121.88,-264.45"/>
</g>
<!-- 7 -->
<g id="node8" class="node">
<title>7</title>
<path fill="none" stroke="#59d856" stroke-width="2" d="M42.25,-324C42.25,-324 12,-324 12,-324 6,-324 0,-318 0,-312 0,-312 0,-300 0,-300 0,-294 6,-288 12,-288 12,-288 42.25,-288 42.25,-288 48.25,-288 54.25,-294 54.25,-300 54.25,-300 54.25,-312 54.25,-312 54.25,-318 48.25,-324 42.25,-324"/>
<text text-anchor="middle" x="27.12" y="-302.88" font-family="sans" font-size="10.00">recharge</text>
</g>
<!-- 4&#45;&gt;7 -->
<g id="edge12" class="edge">
<title>4&#45;&gt;7</title>
<path fill="none" stroke="grey" stroke-width="2" d="M74.98,-359.34C68.06,-351.77 59.81,-342.75 52.13,-334.35"/>
<polygon fill="grey" stroke="grey" stroke-width="2" points="54.87,-332.15 45.53,-327.14 49.7,-336.88 54.87,-332.15"/>
</g>
<!-- 8 -->
<g id="node9" class="node">
<title>8</title>
<path fill="none" stroke="#d85656" stroke-width="2" d="M180.12,-324C180.12,-324 122.12,-324 122.12,-324 116.12,-324 110.12,-318 110.12,-312 110.12,-312 110.12,-300 110.12,-300 110.12,-294 116.12,-288 122.12,-288 122.12,-288 180.12,-288 180.12,-288 186.12,-288 192.12,-294 192.12,-300 192.12,-300 192.12,-312 192.12,-312 192.12,-318 186.12,-324 180.12,-324"/>
<text text-anchor="middle" x="151.12" y="-302.88" font-family="sans" font-size="10.00">initial_condition</text>
</g>
<!-- 4&#45;&gt;8 -->
<g id="edge14" class="edge">
<title>4&#45;&gt;8</title>
<path fill="none" stroke="grey" stroke-width="2" d="M106.27,-359.34C112.68,-351.85 120.31,-342.95 127.44,-334.63"/>
<polygon fill="grey" stroke="grey" stroke-width="2" points="129.96,-337.07 133.81,-327.2 124.65,-332.51 129.96,-337.07"/>
</g>
<!-- 5 -->
<g id="node6" class="node">
<title>5</title>
<path fill="none" stroke="#56c1d8" stroke-width="2" d="M183.75,-468C183.75,-468 126.5,-468 126.5,-468 120.5,-468 114.5,-462 114.5,-456 114.5,-456 114.5,-444 114.5,-444 114.5,-438 120.5,-432 126.5,-432 126.5,-432 183.75,-432 183.75,-432 189.75,-432 195.75,-438 195.75,-444 195.75,-444 195.75,-456 195.75,-456 195.75,-462 189.75,-468 183.75,-468"/>
<text text-anchor="middle" x="155.12" y="-446.88" font-family="sans" font-size="10.00">download_data</text>
</g>
<!-- 5&#45;&gt;4 -->
<g id="edge9" class="edge">
<title>5&#45;&gt;4</title>
<path fill="none" stroke="grey" stroke-width="2" d="M138.98,-431.34C132.06,-423.77 123.81,-414.75 116.13,-406.35"/>
<polygon fill="grey" stroke="grey" stroke-width="2" points="118.87,-404.15 109.53,-399.14 113.7,-408.88 118.87,-404.15"/>
</g>
<!-- 6 -->
<g id="node7" class="node">
<title>6</title>
<path fill="none" stroke="#bed856" stroke-width="2" d="M275.88,-324C275.88,-324 222.38,-324 222.38,-324 216.38,-324 210.38,-318 210.38,-312 210.38,-312 210.38,-300 210.38,-300 210.38,-294 216.38,-288 222.38,-288 222.38,-288 275.88,-288 275.88,-288 281.88,-288 287.88,-294 287.88,-300 287.88,-300 287.88,-312 287.88,-312 287.88,-318 281.88,-324 275.88,-324"/>
<text text-anchor="middle" x="249.12" y="-302.88" font-family="sans" font-size="10.00">surface_water</text>
</g>
<!-- 5&#45;&gt;6 -->
<g id="edge10" class="edge">
<title>5&#45;&gt;6</title>
<path fill="none" stroke="grey" stroke-width="2" d="M167.03,-431.02C182.99,-406.9 211.5,-363.83 230.37,-335.34"/>
<polygon fill="grey" stroke="grey" stroke-width="2" points="233.04,-337.63 235.65,-327.36 227.21,-333.77 233.04,-337.63"/>
</g>
<!-- 5&#45;&gt;7 -->
<g id="edge11" class="edge">
<title>5&#45;&gt;7</title>
<path fill="none" stroke="grey" stroke-width="2" d="M113.62,-438.59C90.41,-430.66 62.86,-417.37 46.12,-396 33.26,-379.56 28.61,-356.38 27.13,-337.8"/>
<polygon fill="grey" stroke="grey" stroke-width="2" points="30.63,-337.81 26.67,-327.99 23.64,-338.14 30.63,-337.81"/>
</g>
<!-- 5&#45;&gt;8 -->
<g id="edge13" class="edge">
<title>5&#45;&gt;8</title>
<path fill="none" stroke="grey" stroke-width="2" d="M154.62,-431.02C153.96,-407.54 152.79,-366.11 151.99,-337.64"/>
<polygon fill="grey" stroke="grey" stroke-width="2" points="155.49,-337.76 151.71,-327.86 148.5,-337.96 155.49,-337.76"/>
</g>
<!-- 9 -->
<g id="node10" class="node">
<title>9</title>
<path fill="none" stroke="#d88d56" stroke-width="2" d="M317.38,-396C317.38,-396 278.88,-396 278.88,-396 272.88,-396 266.88,-390 266.88,-384 266.88,-384 266.88,-372 266.88,-372 266.88,-366 272.88,-360 278.88,-360 278.88,-360 317.38,-360 317.38,-360 323.38,-360 329.38,-366 329.38,-372 329.38,-372 329.38,-384 329.38,-384 329.38,-390 323.38,-396 317.38,-396"/>
<text text-anchor="middle" x="298.12" y="-374.88" font-family="sans" font-size="10.00">subsurface</text>
</g>
<!-- 5&#45;&gt;9 -->
<g id="edge15" class="edge">
<title>5&#45;&gt;9</title>
<path fill="none" stroke="grey" stroke-width="2" d="M191.58,-431.15C210.72,-421.79 234.31,-410.24 254.43,-400.39"/>
<polygon fill="grey" stroke="grey" stroke-width="2" points="255.96,-403.54 263.4,-396 252.88,-397.25 255.96,-403.54"/>
</g>
<!-- 6&#45;&gt;3 -->
<g id="edge5" class="edge">
<title>6&#45;&gt;3</title>
<path fill="none" stroke="grey" stroke-width="2" d="M224.14,-287.15C212.74,-279.01 199.03,-269.22 186.58,-260.33"/>
<polygon fill="grey" stroke="grey" stroke-width="2" points="188.7,-257.54 178.53,-254.57 184.63,-263.23 188.7,-257.54"/>
</g>
<!-- 7&#45;&gt;3 -->
<g id="edge6" class="edge">
<title>7&#45;&gt;3</title>
<path fill="none" stroke="grey" stroke-width="2" d="M54.95,-289.29C70.65,-280.43 90.6,-269.17 108.25,-259.2"/>
<polygon fill="grey" stroke="grey" stroke-width="2" points="109.83,-262.33 116.82,-254.37 106.39,-256.23 109.83,-262.33"/>
</g>
<!-- 8&#45;&gt;3 -->
<g id="edge7" class="edge">
<title>8&#45;&gt;3</title>
<path fill="none" stroke="grey" stroke-width="2" d="M151.12,-287.34C151.12,-280.75 151.12,-273.08 151.12,-265.67"/>
<polygon fill="grey" stroke="grey" stroke-width="2" points="154.63,-265.93 151.13,-255.93 147.63,-265.93 154.63,-265.93"/>
</g>
<!-- 9&#45;&gt;3 -->
<g id="edge8" class="edge">
<title>9&#45;&gt;3</title>
<path fill="none" stroke="grey" stroke-width="2" d="M303.43,-359.14C308.03,-339.76 311.88,-308.8 297.12,-288 274.88,-256.64 232.13,-243.77 198.61,-238.53"/>
<polygon fill="grey" stroke="grey" stroke-width="2" points="199.2,-235.07 188.82,-237.21 198.27,-242.01 199.2,-235.07"/>
</g>
</g>
</svg>
